<svg width="566" height="615" viewBox="0 0 566 615" fill="none" xmlns="http://www.w3.org/2000/svg">
<path d="M280.154 0C293.581 0.504244 310.52 34.184 315.636 45.125C317.755 49.6564 320.008 57.3782 321.47 62.3721C325.401 58.7574 329.885 54.1461 334.748 52.1777C348.845 52.1012 353.03 100.06 353.596 110.23C357.281 106.571 373.767 87.3587 378.719 97.3555C396.398 133.031 394.189 177.35 377.921 213.259C373.415 223.188 367.993 234.272 367.031 245.281C365.308 262.571 379.965 266.74 388.416 251.817C405.445 221.764 426.003 198.733 461.441 192.003C464.365 191.449 466.223 191.415 468.721 193.156C471.347 198.83 470.504 210.654 470.474 217.347C476.874 213.842 483.61 210.97 490.577 208.771C510.321 202.664 530.506 202.703 550.862 205.568C566.929 207.829 566.123 211.854 563.863 227.503C560.991 248.83 553.204 269.198 541.113 287.004C561.111 289.458 572.061 288.027 559.082 311.284C547.222 332.55 538.211 340.912 520.213 356.554C526.881 360.03 540.322 366.258 541.792 374.194C539.591 386.136 498.738 406.232 486.855 409.066C473.018 412.706 446.463 408.134 435.401 417.607C423.065 428.169 465.281 437.671 469.318 439.917C478.12 444.825 500.423 461.02 499.252 471.828C496.686 476.617 491.308 478.094 486.169 480.376C498.708 492.184 511.687 513.838 514.253 530.785C516.565 546.039 474.01 547.918 464.067 548.381C467.043 554.289 474.301 568.029 472.66 574.354C468.744 580.09 462.247 578.703 456.153 578.658C438.729 578.524 424.481 572.989 408.78 566.231C408.526 571.946 407.422 592.077 400.508 593.144C392.571 594.359 375.177 587.214 367.978 583.827C341.446 571.348 319.553 551.059 311.892 522.051C309.908 514.786 307.529 492.139 300.674 489.192C288.016 491.102 292.707 514.934 292.013 524.161C289.843 552.976 286.919 587.087 271.762 612.313C269.831 615.521 260.021 614.708 256.65 614.693C238.217 614.067 242.084 605.429 248.768 593.613C262.075 570.08 269.651 543.45 271.718 516.553C272.247 509.63 273.895 489.618 263.977 489.147C262.063 490.035 260.11 491.073 259.253 493.146C257.283 497.928 255.866 504.67 254.867 509.75C251.795 525.354 247.82 535.991 239.125 549.306C223.798 572.772 196.241 587.304 169.373 593.032C166.728 593.599 162.374 593.808 160.313 591.876C155.619 587.46 155.416 572.981 154.928 566.447C136.444 574.354 116.368 581.664 95.9422 577.897C85.0264 575.883 96.4179 554.281 98.8504 548.358C88.5469 547.769 46.7982 545.584 49.3045 530.74C52.0972 514.188 65.3736 490.998 78.1355 480.04C73.7973 478.235 67.8412 476.161 64.6218 472.991C64.0759 471.343 63.5466 469.776 64.4841 468.188C77.5235 446.079 98.4603 436.784 122.231 430.601C125.786 429.675 132.474 420.942 128.005 417.294C114.909 406.62 93.0358 414.31 77.5759 408.298C58.8042 401.585 40.8885 392.961 26.4617 379.55C17.0094 370.771 39.0842 359.642 44.8416 356.509C24.6908 339.8 10.9816 326.62 0.781996 300.685C-0.465179 297.507 -0.173054 294.627 1.48512 291.703C5.93562 288.526 18.0573 287.818 23.9714 287.102C11.6243 268.637 3.68883 251.02 1.02516 228.812C-1.38112 208.754 -0.930477 207.786 17.9851 205.031C47.557 200.725 66.9163 205.396 93.6589 216.281C93.5843 197.231 89.683 187.246 113.716 194.7C140.025 202.862 157.74 220.721 171.218 244.102C174.789 249.417 181.67 262.926 189.544 260.979C199.348 258.555 198.389 243.358 196.078 235.351C193.136 225.155 187.182 214.798 182.907 204.579C179.661 196.965 177.206 189.037 175.579 180.921C170.737 156.723 172.748 136.873 179.258 113.211C187.487 83.2974 193.384 94.7933 210.72 108.972C211.699 97.953 216.082 54.2535 229.179 52.0508C234.275 53.2825 239.183 58.5095 243.112 62.0898C249.095 38.2056 261.978 16.6116 280.154 0ZM282.048 117.885C279.377 160.764 278.482 198.718 277.326 241.52C263.206 220.466 253.461 203.934 237.131 183.03H237.132C234.27 178.699 232.947 177.196 229.428 173.369L235.861 184.583V184.584C242.324 198.745 250.085 212.169 257.679 225.735C267.361 243.031 277.564 257.458 277.587 278.025C277.639 326.924 276.333 375.798 276.594 424.707C276.639 431.472 276.602 438.201 275.401 444.877C266.704 433.375 257.899 421.984 249.172 410.49C227.062 381.363 200.047 357.366 172.703 333.385C147.191 311.022 122.741 291.606 93.7088 273.98L92.2361 273.016C88.9119 270.855 86.2733 269.282 82.5213 267.27C86.068 270.438 88.3536 272.555 92.2957 275.228C105.373 286.429 118.768 299.281 131.994 310.656C140.129 317.653 157.97 333.228 164.083 340.516C137.411 336.965 119.675 338.628 93.9783 345.49C129.492 344.222 172.836 344.074 199.205 370.927C219.644 391.745 241.14 415.025 257.138 439.506C247.113 439.387 235.763 439.044 225.881 440.416C190.862 445.287 150.715 464.972 127.165 491.803C151.895 474.617 182.832 458.498 212.513 453.455C199.726 475.131 195.539 502.857 187.803 527.278C193.604 517.694 197.686 508.719 201.848 498.68C209.32 480.666 216.5 453.283 238.68 448.166C264.9 442.109 276.475 460.802 282.062 482.307C285.754 470.544 287.284 463.89 295.928 454.708L296.702 454.12C300.543 451.291 304.033 450.04 308.564 448.495C308.53 448.676 308.493 448.854 308.456 449.029C308.493 448.854 308.531 448.675 308.565 448.494C312.698 447.234 320.395 447.07 324.49 448.084C348.896 454.141 353.403 476.885 361.324 496.838C365.158 506.505 370.446 517.097 375.996 525.451C367.694 499.613 363.42 478.226 352.418 453.261C388.385 460.175 406.415 473.297 436.826 491.02C395.405 452.762 364.59 438.112 307.52 439.895C321.506 415.861 344.988 394.042 363.74 373.709C390.735 344.432 432.664 344.417 470.362 345.252C447.739 339.479 437.802 338.531 415.119 339.091L414.757 339.167C412.467 339.574 403.332 340.38 401.394 340.583L412.001 330.356C412.162 330.679 412.308 330.979 412.441 331.257C412.308 330.979 412.163 330.679 412.002 330.356C428.404 313.864 455.041 290.665 472.802 275.128L473.241 272.699C420.564 306.479 370.088 350.832 327.534 396.758C313.891 411.482 301.725 429.294 289.014 445.033C287.59 435.464 287.731 425.699 287.746 416.04C287.835 370.785 287.172 325.47 287.493 280.223C287.672 254.34 302.694 237.515 315.188 216.392C323.483 202.351 330.943 188.436 338.454 173.975C329.026 184.275 305.731 215.813 297.868 227.284L297.869 227.285C294.587 231.978 291.252 236.637 287.866 241.259C288 234.992 287.769 229.152 287.538 222.904C286.412 214.231 286.247 200.504 285.889 191.453L283.92 146.6C283.592 138.619 283.457 125.111 282.048 117.885ZM299.647 456.266C299.723 456.285 299.799 456.302 299.874 456.319C299.706 456.281 299.535 456.238 299.362 456.189L299.647 456.266ZM305.178 455.382C305.06 455.473 304.939 455.558 304.816 455.639C304.876 455.599 304.937 455.56 304.996 455.518L305.178 455.382ZM305.859 454.759L306.019 454.583C306.031 454.569 306.043 454.555 306.054 454.541C305.99 454.615 305.925 454.688 305.859 454.759ZM414.061 336.316L414 335.964C413.991 335.918 413.982 335.873 413.973 335.829C414.003 335.985 414.031 336.147 414.061 336.316ZM413.214 333.019L413.197 332.973C413.188 332.949 413.177 332.925 413.168 332.901C413.183 332.941 413.199 332.98 413.214 333.019ZM482.192 266.525C478.485 268.764 476.65 269.865 473.241 272.7L472.802 275.129C476.934 272.292 479.03 270.381 482.192 266.525ZM295.056 224.773C295.297 224.976 295.535 225.18 295.772 225.386C295.535 225.18 295.297 224.975 295.056 224.772C294.907 224.649 294.761 224.534 294.62 224.424C294.761 224.534 294.907 224.65 295.056 224.773Z" fill="black"/>
</svg>
