<svg width="568" height="615" viewBox="0 0 568 615" fill="none" xmlns="http://www.w3.org/2000/svg">
<path d="M282.16 0.00861594C290.062 0.304629 296.314 5.1218 300.266 8.89387C304.619 13.0498 308.596 18.3047 311.975 23.3782C318.354 32.9546 323.68 43.5332 326.426 49.3135L326.94 50.4041L326.941 50.4057C327.165 50.8838 327.387 51.3865 327.609 51.908C328.253 51.5889 328.917 51.2868 329.6 51.0105C331.042 50.4277 332.582 50.1239 334.137 50.1153C345.208 50.0548 351.097 59.2195 353.596 64.0819C356.619 69.965 358.68 77.2514 360.139 83.9562C360.842 87.1887 361.444 90.4808 361.959 93.6912C364.013 92.5818 366.34 91.6162 368.837 91.1254C371.677 90.5669 375.455 90.4839 379.315 92.2383C383.288 94.0441 385.909 97.1411 387.486 100.32H387.487C406.403 138.443 403.787 184.919 386.902 222.142L386.899 222.148C383.586 229.441 380.61 235.777 378.896 241.68C395.543 214.281 417.317 191.541 453.76 184.629L453.764 184.628C455.398 184.319 458.112 183.855 461.195 184.232C464.417 184.626 467.175 185.804 469.587 187.397L470.064 187.721L470.394 187.958C472.025 189.175 473.329 190.78 474.186 192.629C475.591 195.662 476.311 199.117 476.692 202.315C477.913 201.887 479.141 201.477 480.375 201.087L480.444 201.066C501.751 194.484 523.13 194.664 543.756 197.563L544.531 197.675C548.411 198.25 552.321 199.071 555.742 200.565C559.781 202.329 563.705 205.293 566.013 210.198C568.056 214.541 568.109 218.973 567.938 222.104C567.766 225.26 567.213 228.933 566.711 232.401L566.565 233.448C564.333 249.143 559.556 264.328 552.459 278.419C555.205 279.19 558.204 280.41 560.81 282.467C563.397 284.508 565.535 287.3 566.699 290.839C567.808 294.215 567.786 297.519 567.351 300.354C566.535 305.676 563.927 311.371 560.666 317.207C551.564 333.507 543.811 342.765 533.351 352.598C535.44 354.129 537.611 355.954 539.527 358.09C541.908 360.746 544.482 364.537 545.388 369.429C545.661 370.9 545.662 372.409 545.39 373.88C544.606 378.131 542.399 381.546 540.516 383.91C538.521 386.413 536.098 388.712 533.641 390.759C528.719 394.859 522.578 398.834 516.505 402.315C504.804 409.02 491.108 415.148 483.61 417.003L483.611 417.004C478.976 418.222 473.807 418.64 469.255 418.868C466.903 418.986 464.481 419.061 462.176 419.134C460.081 419.2 458.064 419.265 456.086 419.358C457.049 419.672 457.999 419.976 458.925 420.269C460.877 420.886 462.908 421.515 464.432 422.012C465.418 422.333 467.552 423.012 469.255 423.896L469.59 424.076L469.6 424.081C474.622 426.878 482.894 432.501 489.927 438.969C493.442 442.203 497.065 446.024 499.808 450.159C502.345 453.984 505.355 459.895 504.61 466.754C504.441 468.318 503.971 469.835 503.227 471.222C502.012 473.486 500.534 475.327 498.973 476.837C502.086 480.961 505.004 485.398 507.592 489.934C512.968 499.358 517.433 510.089 518.97 520.224L519.04 520.728C520.388 531.252 513.387 537.983 507.966 541.283C502.481 544.623 495.626 546.577 489.647 547.831C485.426 548.716 481.048 549.365 476.932 549.845C477.582 551.706 478.173 553.666 478.602 555.628C479.217 558.439 479.836 562.669 478.715 566.985C478.36 568.353 477.77 569.65 476.972 570.818C472.587 577.232 466.44 579.554 461.228 580.213C458.872 580.512 456.654 580.487 455.01 580.437C452.966 580.374 452.213 580.305 450.872 580.296H450.868C437.81 580.195 426.446 577.338 415.779 573.492C415.128 576.657 414.114 580.435 412.402 583.804C410.866 586.825 407.037 592.876 399.317 594.065C399.313 594.066 399.309 594.067 399.305 594.067C395.316 594.678 391.202 594.158 387.987 593.539C384.547 592.876 380.987 591.86 377.696 590.776C371.111 588.607 364.728 585.875 360.939 584.095V584.094C336.804 572.757 315.193 554.654 304.381 528.686C302.22 553.723 298.156 583.394 284.147 606.679C284.145 606.682 284.143 606.686 284.141 606.69C281.279 611.435 276.659 613.131 274.568 613.76C272.066 614.512 269.542 614.782 267.651 614.901C264.165 615.119 259.551 614.909 259.042 614.906C258.921 614.906 258.8 614.903 258.679 614.899C253.613 614.727 248.387 614.003 243.96 611.75C238.74 609.095 234.927 604.407 234.087 598.199C233.405 593.157 234.933 588.578 236.138 585.634C237.278 582.849 238.796 580.008 240.229 577.45L240.836 576.372C246.839 565.769 251.549 554.419 254.979 542.65C254.198 543.932 253.378 545.231 252.515 546.55H252.515C235.453 572.64 205.588 587.894 177.73 593.829C175.578 594.29 172.719 594.627 169.728 594.416C167.143 594.234 162.135 593.496 158.056 589.678C158.051 589.673 158.046 589.668 158.04 589.663C154.719 586.542 153.055 582.601 152.148 579.855C151.476 577.823 150.991 575.717 150.626 573.708C136.068 578.855 119.516 582.529 102.315 579.361H102.313C98.7794 578.71 95.2642 577.057 92.5035 574.048C89.8345 571.139 88.6382 567.8 88.1402 565.017C87.2235 559.893 88.329 554.729 89.3081 551.232C89.4424 550.753 89.5863 550.266 89.7387 549.776C85.4035 549.258 80.7517 548.555 76.2917 547.588C70.4085 546.314 63.6576 544.346 58.2704 541.02C52.8641 537.682 45.7654 530.757 47.5874 519.978C49.2502 510.137 53.8071 499.204 59.2946 489.587C61.7783 485.235 64.5889 480.916 67.6194 476.891C66.9997 476.391 66.392 475.856 65.8092 475.283C64.4235 473.921 63.3818 472.248 62.7703 470.405C62.5902 469.861 59.5501 462.765 63.7178 455.711C75.1385 436.372 91.7774 425.916 109.588 419.286C102.32 419.244 91.6761 419.369 82.6106 415.904C63.9172 409.217 44.9612 400.257 29.3689 385.782L28.9039 385.338C26.6018 383.074 24.652 380.153 23.7426 376.547C22.7673 372.68 23.2504 369.06 24.3106 366.093C26.2312 360.717 30.2835 356.764 33.1546 354.342C33.6751 353.903 34.2104 353.471 34.7555 353.049C21.0086 340.439 10.0673 327.034 1.60329 305.54L1.6001 305.532C-1.03452 298.828 -0.280655 292.204 3.02444 286.383L3.1938 286.095C4.05766 284.666 5.20513 283.427 6.56734 282.456C9.34639 280.474 12.4746 279.395 14.7436 278.755C14.9437 278.698 15.1451 278.645 15.3467 278.591C8.07167 264.863 3.11099 250.453 1.07285 233.483L1.07365 233.482C0.518385 228.859 0.000723176 224.414 8.38904e-07 220.701C-0.00070436 217.041 0.44257 211.924 3.68669 207.319C7.05363 202.539 11.8655 200.496 15.5248 199.41C19.0891 198.353 23.4342 197.69 27.7991 197.055C52.3033 193.492 70.4329 195.887 90.0982 202.358C90.4087 199.842 91.0479 197.076 92.3709 194.494C93.7963 191.713 95.9959 189.131 99.1252 187.289C102.13 185.521 105.293 184.846 108.104 184.673C113.014 184.371 118.492 185.523 124.137 187.211L125.268 187.556L126.626 187.986C154.848 197.152 173.615 216.549 187.366 240.248C187.988 241.196 188.812 242.515 189.52 243.646C189.383 242.957 189.227 242.301 189.053 241.7C187.914 237.759 186.114 233.533 183.864 228.701C181.752 224.167 179.032 218.674 176.856 213.477V213.477C173.42 205.414 170.821 197.023 169.097 188.433L169.096 188.429C163.973 162.859 166.206 141.805 172.835 117.74C174.851 110.421 177.114 104.012 180.248 99.4179C181.906 96.9876 184.292 94.3321 187.737 92.5734C191.449 90.679 195.334 90.3618 198.85 91.044C201.272 91.5139 203.52 92.477 205.515 93.6042C206.069 90.3462 206.715 86.9916 207.464 83.6953C208.917 77.3053 210.91 70.4348 213.726 64.7552C216.096 59.9773 221.116 51.7632 230.642 50.1632L230.949 50.1153C232.485 49.8971 234.049 49.972 235.559 50.3363C237.039 50.6935 238.435 51.1921 239.736 51.7724C247.139 33.3335 258.624 16.7148 273.422 3.20865C275.801 1.03749 278.94 -0.111988 282.16 0.00861594ZM281.7 12.2543C264.219 28.2093 251.831 48.9498 246.077 71.8901C242.298 68.4512 237.578 63.4306 232.677 62.2477C220.081 64.3636 215.866 106.336 214.925 116.919C198.252 103.301 192.58 92.259 184.666 120.99C178.405 143.717 176.471 162.783 181.128 186.025C182.692 193.82 185.053 201.435 188.175 208.748C192.286 218.563 198.013 228.51 200.843 238.302C203.065 245.993 203.987 260.59 194.558 262.919C186.986 264.788 180.369 251.813 176.934 246.708C163.972 224.251 146.935 207.099 121.633 199.26C98.5201 192.1 102.272 201.691 102.344 219.988C76.6249 209.533 58.0068 205.046 29.567 209.182C11.3755 211.828 10.9419 212.757 13.2561 232.023C15.8178 253.353 23.4491 270.273 35.3235 288.008C29.6354 288.695 17.9776 289.376 13.6979 292.428C12.1032 295.237 11.8227 298.002 13.022 301.054C22.8312 325.965 36.0159 338.624 55.3954 354.672C49.8585 357.681 28.6284 368.37 37.7192 376.803C51.5937 389.684 68.8233 397.966 86.8764 404.414C101.744 410.189 122.78 402.803 135.375 413.055C139.674 416.558 133.242 424.947 129.823 425.836C106.962 431.775 86.826 440.702 74.2858 461.937C73.3844 463.463 73.8933 464.968 74.4184 466.551C77.5145 469.596 83.2427 471.588 87.4148 473.321C75.1415 483.846 62.3726 506.12 59.6868 522.018C57.277 536.274 97.4289 538.373 107.337 538.939C104.998 544.628 94.0421 565.376 104.54 567.31C124.184 570.928 143.492 563.907 161.268 556.313C161.738 562.589 161.933 576.495 166.447 580.737C168.429 582.592 172.616 582.392 175.16 581.847C200.999 576.345 227.502 562.389 242.241 539.85C250.604 527.061 254.427 516.845 257.381 501.857C258.342 496.978 259.705 490.502 261.599 485.909C262.423 483.918 264.301 482.921 266.142 482.069C275.681 482.52 274.096 501.742 273.587 508.391C271.599 534.226 264.313 559.802 251.516 582.406C245.088 593.754 241.368 602.05 259.096 602.652C262.338 602.666 271.772 603.448 273.63 600.367C288.207 576.137 291.018 543.374 293.106 515.698C293.773 506.836 289.261 483.946 301.434 482.112C308.027 484.942 310.316 506.693 312.224 513.671C319.591 541.533 340.646 561.02 366.163 573.006C373.085 576.259 389.814 583.122 397.446 581.954C404.096 580.93 405.158 561.594 405.402 556.106C420.503 562.597 434.205 567.912 450.962 568.041C456.823 568.084 463.072 569.417 466.838 563.908C468.416 557.832 461.436 544.635 458.574 538.961C468.136 538.517 509.061 536.712 506.838 522.061C504.37 505.783 491.888 484.985 479.829 473.644C484.772 471.452 489.943 470.033 492.411 465.433C493.537 455.052 472.089 439.498 463.624 434.784C459.742 432.627 419.141 423.5 431.005 413.355C441.644 404.257 467.182 408.648 480.489 405.152C491.917 402.43 531.206 383.129 533.323 371.659C531.909 364.036 518.983 358.054 512.569 354.715C529.879 339.692 538.546 331.661 549.952 311.235C562.434 288.897 551.903 290.272 532.67 287.915C544.299 270.813 551.788 251.25 554.55 230.765C556.723 215.735 557.498 211.87 542.046 209.698C522.469 206.946 503.057 206.908 484.069 212.773C477.369 214.886 470.891 217.645 464.736 221.01C464.765 214.582 465.575 203.225 463.05 197.776C460.647 196.104 458.86 196.136 456.048 196.668C421.967 203.132 402.196 225.252 385.818 254.118C377.691 268.452 363.594 264.448 365.251 247.841C366.177 237.266 371.392 226.621 375.725 217.084C391.371 182.594 393.494 140.027 376.493 105.761C371.729 96.1602 355.875 114.613 352.331 118.128C351.786 108.36 347.762 62.2956 334.204 62.3698C329.527 64.2605 325.215 68.6895 321.434 72.1613C320.028 67.3648 317.862 59.9478 315.825 55.5955C310.904 45.0868 294.612 12.7379 281.7 12.2543ZM283.523 125.481C284.878 132.422 285.008 145.395 285.323 153.06L287.217 196.142C287.561 204.835 288.645 218.036 288.645 226.206C288.645 234.343 288.801 245.318 288.802 245.404L298.738 230.557C306.299 219.54 328.702 189.247 337.769 179.353C330.546 193.243 323.372 206.608 315.395 220.094C303.379 240.383 288.931 256.542 288.759 281.402C288.451 324.861 289.089 368.386 289.003 411.851C288.988 421.129 288.852 430.508 290.223 439.699C302.446 424.583 314.147 407.474 327.268 393.332C368.193 349.221 416.738 306.621 467.398 274.177C470.676 271.454 472.44 270.396 476.005 268.246C472.964 271.949 470.948 273.784 466.974 276.509C449.894 291.433 428.967 306.502 408.502 329.555C405.585 332.84 401.173 338.07 401.123 338.129H411.348C411.516 338.131 442.929 338.331 464.628 343.862C428.373 343.059 388.049 343.074 362.088 371.193C344.053 390.723 321.471 411.68 308.02 434.763C362.905 433.051 392.54 447.122 432.375 483.868C403.129 466.845 385.789 454.243 351.199 447.602C361.78 471.58 365.89 492.121 373.874 516.938C368.537 508.914 363.451 498.74 359.764 489.456C352.146 470.291 347.812 448.447 324.341 442.63C320.402 441.655 312.661 441.082 308.686 442.292C305.593 443.235 302.142 443.927 296.872 448.991C288.558 457.81 287.087 464.202 283.536 475.5C278.163 454.845 267.032 436.892 241.816 442.709C220.484 447.623 213.579 473.923 206.393 491.225C202.389 500.868 198.464 509.487 192.884 518.693C200.325 495.237 204.353 468.607 216.65 447.787C188.105 452.631 158.352 468.114 134.568 484.62C157.217 458.85 195.827 439.943 229.505 435.264C239.009 433.946 249.925 434.276 259.567 434.391C244.181 410.877 223.507 388.517 203.85 368.521C178.491 342.73 136.806 342.873 102.652 344.091C127.365 337.5 144.423 335.902 170.073 339.312C164.195 332.312 147.038 317.354 139.213 310.634C134.404 306.503 123.813 296.873 102.392 275.407C130.314 292.335 153.828 310.985 178.363 332.463C204.661 355.497 230.641 378.545 251.904 406.521C260.297 417.561 268.766 428.501 277.13 439.548C278.285 433.137 278.321 426.674 278.278 420.177C278.027 373.2 279.283 326.259 279.233 279.292C279.211 259.538 269.397 245.68 260.087 229.068C253.012 216.445 245.785 203.951 239.69 190.816L239.103 189.544L232.916 178.772C236.301 182.448 237.573 183.891 240.325 188.051C256.031 208.129 265.402 224.008 278.981 244.229C280.093 203.119 280.955 166.665 283.523 125.481Z" fill="black"/>
</svg>
