<svg width="868" height="522" viewBox="0 0 868 522" fill="none" xmlns="http://www.w3.org/2000/svg">
<path d="M433.383 0C443.437 2.53494 457.201 27.3294 461.506 36.4111C463.649 40.9232 466.062 48.4734 467.69 53.4404C471.291 50.1309 475.112 45.7684 479.728 44.9014C490.872 47.0271 494.699 84.752 494.821 94.2256C498.636 90.5811 508.249 79.3621 514.023 81.7354C517.642 83.2251 519.344 89.6852 520.556 93.0908C530.77 121.701 528.608 152.72 516.27 180.306C512.713 189.14 507.116 198.12 506.773 207.806C506.057 228.142 518.848 225.176 526.71 210.76C528.277 207.889 532.154 202.162 534.107 199.378C537.046 195.167 540.28 191.171 543.788 187.419C553.952 176.772 566.804 169.066 580.985 165.115C583.673 164.351 591.51 161.779 593.041 164.933C595.41 169.797 594.548 179.575 594.456 184.933C601.51 181.106 609.041 178.224 616.848 176.361C629.381 173.39 658.992 171.571 672.5 177.911C675.886 179.501 674.196 191.17 673.59 195.197C670.889 213.054 664.852 229.154 654.621 244.13C659.942 244.926 669.745 245.649 673.516 249.139C676.063 254.209 671.71 260.38 669.352 264.93C661.497 280.078 651.7 290.561 638.474 301.031C643.881 303.621 649.342 306.615 654.657 309.426C684.244 305.397 700.084 286.006 729.53 280.226C755.676 275.094 776.323 280.617 799.486 292.753C807.011 296.696 817.922 301.638 826.188 303.107C831.13 304.001 836.157 304.331 841.172 304.099C849.297 303.682 866.062 297.425 867.77 309.836C869.124 319.645 859.957 320.631 852.555 322.095C834.351 325.695 815.7 321.984 799.211 313.841C784.938 306.744 773.879 300.842 758.009 298.393C727.583 293.702 705.87 311.912 679.67 322.896C669.163 327.299 658.295 328.175 647.181 328.757C629.866 343.042 612.347 349.256 589.943 349.562C583.777 349.905 573.215 349.526 567.882 352.937C552.274 362.917 581.444 369.799 586.52 371.63C590.2 372.91 593.745 374.538 597.113 376.485C603.126 379.963 619.995 393.618 619.15 400.812C617.295 404.56 612.066 406.348 608.178 408.209C619.089 419.475 629.18 435.916 631.604 451.48C633.533 463.886 596.753 465.993 589.013 466.029C602.501 492.695 598.153 494.116 568.867 490.136C559.652 488.887 550.474 484.973 542.03 481.214C541.295 487.845 540.983 498.334 536.617 503.11C533.011 504.745 529.404 503.349 525.431 502.431C495.066 495.383 467.72 473.658 459.332 442.854C457.305 435.414 456.289 425.133 452.817 418.435C452.131 417.112 450.534 416.494 449.089 416.236C445.305 417.234 443.137 422.243 443.1 425.482C442.758 457.028 440.926 490.858 425.943 519.293C424.29 522.428 415.232 521.92 412.146 521.914C398.717 520.591 398.935 516.281 405.127 505.829C414.668 489.621 420.261 471.68 423.574 453.115C424.499 447.946 429.684 416.574 418.661 416.353C414.306 416.267 412.338 426.241 411.618 430.001C409.389 441.641 406.231 453.348 399.658 463.451C386.708 484.9 364.21 497.06 340.544 503.073C324.922 507.041 326.312 493.081 325.557 481.343C309.219 487.87 295.048 492.805 276.481 491.226C274.245 491.036 272.755 489.94 271.528 488.097C270.289 482.28 275.521 471.864 277.987 466.078C270.698 465.943 234.783 463.194 235.828 452.295C237.302 436.914 248.679 418.809 259.556 407.971C248.114 402.772 244.911 401.48 254.07 390.263C264.973 376.908 278.774 371.777 294.814 366.982C308.378 362.929 306.169 352.642 293.162 350.561C280.003 348.791 267.422 350.346 254.378 346.733C240.758 342.962 231.372 337.145 220.371 328.781C208.209 328.279 199.461 327.146 187.931 322.664C163.414 313.131 149.379 298.656 121.708 297.823C86.5426 296.029 61.0815 327.287 25.326 323.276C18.201 322.474 -1.44747 322.009 0.0848052 311.116C2.31114 295.307 16.1044 304.362 26.0262 304.35C32.6709 304.337 38.6402 304.056 45.0516 302.207C63.6069 297.56 78.8373 285.283 97.6209 281.058C122.065 275.284 143.985 278.878 166.187 290.304C183.625 299.28 193.19 306.144 213.028 309.463C218.869 306.108 222.954 303.891 229.121 301.025C213.564 288.1 202.985 276.055 194.834 257.202C189.458 244.76 205.39 245.244 213.684 244.105C210.882 240.217 208.396 236.106 206.253 231.817C202.73 224.844 185.476 180.167 197.764 176.799C215.833 171.846 241.895 172.492 259.737 178.783C263.991 180.283 269.423 182.623 273.733 184.457C273.608 178.418 272.873 169.968 275.437 164.731C276.585 163.81 277.526 163.125 279.157 163.344C301.01 166.276 320.543 179.79 333.078 197.611C338.865 205.838 342.106 213.414 349.177 220.249C352.647 223.604 356.93 222.932 359.651 218.887C366.404 205.463 355.813 188.908 350.604 176.752C348.076 170.89 346.018 164.836 344.449 158.647C339.118 137.419 340.012 118.302 346.098 97.3027C353.535 71.6405 358.335 81.3657 373.419 93.7471C373.526 83.3469 377.077 48.1857 388.552 44.875C392.802 45.311 397.313 50.1603 400.693 53.168C404.442 39.2264 420.187 6.22351 433.383 0ZM433.5 105.035C433.353 112.154 432.814 119.217 432.416 126.323C430.946 152.521 431.111 178.809 430.291 205.026C415.534 183.401 406.163 168.686 389.774 147.747C396.251 161.002 403.158 174.044 410.483 186.851C415.133 195.092 426.703 213.752 428.368 222.137C432.501 242.942 429.948 272.584 429.801 293.843L429.722 344.235C429.715 350.591 430.211 371.384 428.368 376.559C425.845 376.68 417.006 363.187 414.909 360.468C407.748 351.057 400.259 341.896 392.456 333.012C375.809 313.902 355.485 296.384 336.212 279.925C318.153 264.507 295.776 245.725 274.714 234.023L273.712 233.472C270.534 231.268 267.665 229.658 264.311 227.746C267.307 230.509 269.976 232.711 273.148 235.272C290.931 250.957 317.769 273.196 333.269 289.654C311.516 287.536 296.207 287.169 274.64 293.641C308.37 292.973 341.936 292.434 366.466 318.359C382.701 335.522 400.393 353.359 412.622 373.73C368.123 373.198 335.322 385.181 303.016 416.5C302.53 416.971 302.048 417.449 301.571 417.933C323.005 404.064 349.256 389.405 374.609 385.603C363.544 405.509 360.138 425.941 353.794 447.666C358.207 440.159 361.801 433.381 365.143 425.354C371.859 409.219 376.873 385.486 396.944 381.188C419.998 376.253 429.036 391.37 434.137 410.26C436.782 401.963 440.278 390.514 447.595 385.548C466.386 372.794 486.641 384.25 494.222 403.17C500.424 418.637 505.011 433.596 514.146 447.14C506.927 424.099 504.477 407.645 493.725 385.4C517.936 390.58 535.222 399.135 556.371 411.748L558.862 413.44C561.297 415.08 563.612 416.58 566.29 418.146C563.871 415.538 560.975 412.973 558.354 410.536C537.444 391.065 510.993 378.574 482.674 374.802C474.224 373.761 464.665 373.809 456.056 373.699C467.072 354.65 483.905 339.465 498 323.215C524.745 292.386 555.005 293.616 593.458 293.469C572.193 287.487 557.478 287.279 535.729 289.71C554.533 271.041 583.177 245.078 603.763 227.938C561.116 252.138 518.86 291.277 483.592 325.762C468.566 340.457 453.307 361.147 440.137 377.802C437.957 361.178 438.924 325.168 438.888 306.664L438.814 261.604C438.796 248.654 437.676 229.709 442.55 217.729C446.591 207.808 454.911 196.204 460.71 186.873C468.89 173.72 475.504 161.659 482.264 147.813C468.542 163.417 451.997 187.771 439.702 204.624C438.294 192.455 438.471 178.782 437.914 166.489C436.959 145.307 436.592 122.761 434.724 101.693L433.5 105.035ZM434.253 97.3525C433.285 100.528 433.432 101.762 433.499 105.035L434.723 101.693C434.73 99.5681 434.939 99.31 434.253 97.3525Z" fill="#839254"/>
</svg>
