<svg width="1010" height="1022" viewBox="0 0 1010 1022" fill="none" xmlns="http://www.w3.org/2000/svg">
<path d="M242.271 0.317453C285.79 0.0217094 329.31 -0.0511559 372.83 0.0982464L599.733 0.0902862L711.864 0.0835499C747.537 0.0768145 792.847 -1.19801 827.161 6.45274C868.632 15.8216 906.736 36.4171 937.29 65.9865C972.057 99.4986 995.606 141.422 1004.85 189.131C1008.51 208.055 1009.53 231.066 1009.77 250.291C1010.25 289.281 1009.69 328.398 1009.68 367.425L1009.71 605.042L1009.74 722.2C1009.82 759.545 1011.7 803.159 1003.67 839.175C994.191 881.099 973.245 919.57 943.162 950.284C911.775 982.834 869.153 1006.41 824.846 1015.82C806.765 1019.66 788.708 1020.6 770.302 1020.93L381.126 1021.19L284.492 1021.19C252.764 1021.22 221.462 1022.29 190.145 1016.46C153.163 1009.36 118.446 993.433 88.9596 970.012C40.3536 931.492 9.20873 875.099 2.48685 813.44C-1.0639 781.93 0.24459 734.556 0.198055 702.055L0.307051 510.306L0.182134 324.933C0.0762056 302.452 0.133154 279.972 0.352972 257.492C0.64749 235.952 1.07059 213.778 4.78177 192.548C11.5588 154.965 27.5552 119.65 51.3365 89.7684C86.8716 44.7487 137.735 14.3839 194.225 4.46643C204.062 2.82545 213.982 1.72698 223.94 1.17652C228.806 0.915062 236.919 0.976898 241.385 0.431335L242.271 0.317453Z" fill="white"/>
<path d="M493.724 417.817L511.812 455.579C452.356 445.858 433.016 410.063 395.527 370.151C371.708 344.792 316.971 315.053 283.5 305.5C283.5 305.5 290.216 308.389 294.461 310.368C336.638 330.025 365.073 349.083 391.592 379.385C423.04 415.37 427.472 435.289 474.648 458.719C396.453 448.163 303.141 474.73 241.355 523.097C229.709 532.214 200.724 557.098 193.451 569.338C171.464 592.367 153.639 620.619 144.095 651.056C142.999 645.148 142.366 631.585 142.143 625.174C140.8 586.446 143.928 546.603 164.583 512.749C158.19 510.324 151.039 508.132 144.497 505.989C155.227 476.912 171.652 457.615 197.606 440.79C191.084 433.997 184.498 426.544 178.13 419.554C210.307 392.06 233.489 389.013 273.705 389.391C253.275 369.843 237.117 362.757 210.669 353.862C213.805 345.894 216.056 341.254 220.662 334.051C208.723 314.116 188.06 292.027 169.661 277.994C171.751 276.223 173.882 274.501 176.052 272.828C207.154 248.742 248.238 236.761 287.383 241.827C284.868 226.936 281.867 213.175 280.858 198.04C305.628 199.509 332.604 210.952 353.991 222.662C356.99 216.459 359.532 211.675 362.922 205.699C373.97 209.364 384.755 215.31 394.062 221.917C458.463 267.636 449.527 358.26 493.724 417.817Z" fill="#FEAF15"/>
<path d="M193.451 569.338C201.01 563.313 208.049 556.682 215.725 550.663C292.19 490.706 386.002 467.04 482.255 477.941C487.083 478.483 491.9 479.119 496.706 479.847C462.522 546.303 409.699 599.304 347.198 639.496C356.65 636.141 372.155 628.517 381.175 623.601C430.41 596.751 465.772 562.903 497.655 517.402C494.422 557.527 492.322 598.049 486.748 637.935C486.173 642.055 478.374 657.694 476.248 662.225C461.73 693.281 443.806 722.623 422.808 749.711C415.185 759.422 407.3 767.786 399.56 776.995C431.038 755.16 463.532 718.153 483.054 685.382C476.371 757.897 471.398 827.951 491.508 898.948C495.163 912.645 498.813 926.465 503.699 939.783C498.004 936.972 484.977 927.671 479.672 923.526C444.803 896.278 419.234 867.31 401.695 826.598C396.472 831.827 389.391 837.901 383.806 842.94C362.543 815.687 347.614 785.01 345.613 749.944C331.959 754.781 324.74 756.746 310.767 759.661C302.519 716.346 305.969 687.103 320.85 645.68C289.306 664.282 262.358 673.779 225.069 670.436C225.174 656.904 226.993 649.568 232.579 637.31C201.905 640.433 175.209 642.135 145.722 652.661C144.865 652.967 145.41 652.887 144.099 652.477L144.095 651.056C153.639 620.619 171.464 592.367 193.451 569.338Z" fill="#3DC47D"/>
<path d="M528.864 455.062C544.202 432.364 551.96 412.421 560.9 386.533C577.285 339.073 586.482 295.127 634.003 268.098C647.272 260.486 661.722 255.163 676.76 252.352C699.722 247.88 720.546 248.718 743.453 250.816C737.758 264.471 734.85 274.126 729.902 287.541C776.248 284.142 814.29 294.185 850.232 325.049C854.378 328.651 858.339 332.45 862.117 336.434C842.689 345.172 832.065 352.741 818.515 369.303C824.301 375.592 826.842 379.332 831.178 386.734C810.861 400.792 788.898 416.154 772.464 434.736C803.501 439.854 822.74 449.484 844.036 473.524L826.971 488.252C847.342 508.285 859.693 525.81 865.681 554.404C859.258 555.249 852.865 556.29 846.51 557.521C858.394 592.232 857.341 618.666 851.286 654.375C850.526 658.87 847.691 673.804 846.228 677.398C844.685 671.348 844.177 665.36 842.07 658.092C835.194 634.359 824.246 614.937 809.184 595.71C802.834 585.479 790.943 571.647 782.714 562.823C739.571 516.656 683.532 484.532 621.898 470.624C607.007 467.122 577.659 462.321 562.486 462.118C598.967 450.742 616.301 431.439 637.365 401.785C650.554 383.205 675.481 368.858 696.721 362.09C697.713 361.769 697.713 361.747 698.558 361.116C692.674 361.521 685.957 363.691 680.44 365.422C658.93 372.169 642 382.213 627.5 399.666C621.414 406.997 614.397 415.378 607.613 422.111C588.264 441.319 559.045 453.071 531.865 454.901C530.867 454.968 529.862 455.022 528.864 455.062Z" fill="#F54949"/>
<path d="M518.921 480.71C536.261 480.474 547.907 480.016 565.511 481.024C640.163 485.298 710.841 511.561 769.286 558.592C778.654 566.081 787.63 574.047 796.178 582.46C800.568 586.764 804.861 591.663 809.184 595.71C824.246 614.937 835.194 634.359 842.07 658.092C844.177 665.36 844.685 671.348 846.228 677.398L845.873 679.045C843.436 679.749 841.005 678.286 838.537 677.441C814.064 669.089 788.151 665.452 763.42 658.373C768.269 675.898 768.472 685.266 766.739 703.268C723.106 700.01 658.134 664.802 658.134 664.802C658.134 664.802 647.809 658.813 641.645 654.314C636.51 650.567 631.928 646.36 629.025 644.033C621.996 638.467 615.23 632.571 608.77 626.356C566.595 585.675 534.491 537.468 518.921 480.71Z" fill="#8A58F2"/>
<path d="M515.773 526.25C516.539 527.885 517.329 529.502 518.149 531.112C541.098 576.221 572.503 612.647 615.334 639.974C621.243 643.746 635.265 652.226 641.645 654.314C645.305 655.925 680.134 675.303 680.134 675.303C680.134 675.303 666.277 727.677 664.992 736.945C663.743 745.413 661.912 753.789 659.5 762C652.109 758.724 643.947 754.946 636.459 751.964C634.579 784.184 622.529 814.97 602.047 839.91C596.432 835.311 590.223 829.996 584.511 825.631C579.545 836.536 574.567 847.466 567.77 857.391C551.465 881.173 531.222 901.899 514.518 925.387C512.975 927.561 505.321 939.25 503.699 939.783C498.812 926.465 495.163 912.645 491.508 898.948C491.385 895.452 490.975 891.509 490.607 888C485.726 841.783 489.805 795.273 494.147 749.172C495.916 730.356 497.318 711.179 499.743 692.369C516.667 730.191 539.494 758.602 572.264 783.823C544.288 752.552 523.176 715.771 510.287 675.849C508.818 671.379 503.907 657.669 504.195 653.824C507.366 611.453 514.053 568.787 515.773 526.25Z" fill="#8A58F2"/>
<path d="M556.571 104.731C580.751 87.3206 620.196 74.2827 650.217 79.6245C657.583 79.7145 666.786 82.3618 673.779 84.6518C706.739 95.4541 732.547 127.239 730.331 162.903C730.643 173.175 727.625 183.998 723.155 193.165C715.617 208.926 702.03 220.977 685.486 226.583C663.614 233.871 632.485 228.83 624.433 203.875C619.449 188.409 626.968 170.361 643.653 166.652C652.568 164.67 657.356 166.912 664.808 171.333C663.21 171.055 661.612 170.814 660.001 170.609C648.362 169.196 637.609 176.365 636.581 188.563C635.429 202.269 651.178 209.671 662.947 209.572C674.378 209.476 685.535 204.618 693.586 196.461C703.971 186.069 707.198 173.748 707.173 159.462L707.108 158.458C706.333 148.094 702.652 138.15 696.477 129.772C684.139 113.07 666.939 107.069 647.253 104.173C610.472 103.713 593.095 113.725 563.937 133.931C561.292 136.615 558.365 139.168 555.567 141.7C535.471 159.873 519.337 185.744 512.393 211.96C504.77 242.763 506.16 263.059 513.061 293.536C515.939 302.797 518.675 312.907 521.939 321.993C538.098 366.963 539.653 414.58 511.812 455.579L493.724 417.817C496.461 421.507 504.623 426.676 508.371 421.351C511.536 416.856 511.88 410.194 512.51 404.874C516.9 369.825 499.186 338.686 488.663 306.543C486.407 299.656 483.142 289.59 482.42 282.433C474.723 253.119 478.977 222.404 487.541 193.931C498.965 162.369 523.17 126.939 551.41 108.584C551.87 108.053 555.86 105.24 556.571 104.731Z" fill="#4E80ED"/>
</svg>
